<svg width="66" height="38" xmlns="http://www.w3.org/2000/svg"><g transform="translate(1 1)" fill="none" fill-rule="evenodd"><path d="M19.397 19.89v4.534a2.479 2.479 0 001.532-.871c.318-.417.487-.927.482-1.451a2.009 2.009 0 00-.482-1.33 3.065 3.065 0 00-1.532-.882z" fill="#E4E8F8" fill-rule="nonzero"/><path d="M18.015.078a17.943 17.943 0 1013.99 29.17 17.508 17.508 0 01-3.953-11.233 17.85 17.85 0 013.953-11.227 17.891 17.891 0 00-13.99-6.71zm6.275 23.678a4.923 4.923 0 01-.998 1.602 5.805 5.805 0 01-1.643 1.231 6.687 6.687 0 01-2.252.68v2.124h-2.543v-2.09a7.088 7.088 0 01-2.514-.731 6.81 6.81 0 01-1.782-1.347 5.88 5.88 0 01-1.648-3.512l3.1-.86c.067.793.337 1.554.783 2.212a3.257 3.257 0 002.061 1.359v-5.085l-.5-.11a6.966 6.966 0 01-3.482-1.771 4.487 4.487 0 01-1.271-3.315 4.859 4.859 0 01.377-1.939c.26-.61.63-1.167 1.091-1.643a5.857 5.857 0 011.672-1.201 7.14 7.14 0 012.101-.639V6.65h2.543v2.1a6.42 6.42 0 013.622 1.823c.389.403.71.865.952 1.37.219.453.38.93.482 1.422l-3.001.935a4.255 4.255 0 00-.174-.674 3.065 3.065 0 00-.372-.743 3.587 3.587 0 00-.61-.69 2.676 2.676 0 00-.882-.511v4.94l.25.058c1.422.24 2.73.932 3.727 1.974a4.818 4.818 0 011.248 3.274c0 .625-.114 1.244-.337 1.828z" fill="#E4E8F8" fill-rule="nonzero"/><path d="M15.345 12.483c-.33.416-.51.932-.511 1.463-.003.49.17.966.488 1.34.401.442.942.73 1.532.82v-4.534a2.635 2.635 0 00-1.51.91z" fill="#E4E8F8" fill-rule="nonzero"/><path d="M19.397 29.393v-2.125a6.687 6.687 0 002.252-.679 5.805 5.805 0 001.643-1.23 4.923 4.923 0 00.998-1.603c.22-.582.332-1.2.331-1.823a4.818 4.818 0 00-1.248-3.274 6.705 6.705 0 00-3.727-1.973l-.25-.058v-4.946c.325.112.624.285.883.51.232.204.437.436.61.691.159.23.285.48.377.743.076.22.134.445.174.674l2.984-.94a6.142 6.142 0 00-.482-1.423 5.224 5.224 0 00-.935-1.364 6.42 6.42 0 00-1.492-1.132 6.264 6.264 0 00-2.101-.69V6.648h-2.56V8.72a7.14 7.14 0 00-2.101.639 5.857 5.857 0 00-1.672 1.201 5.375 5.375 0 00-1.103 1.643 4.963 4.963 0 00-.39 1.94 4.487 4.487 0 001.272 3.314 6.966 6.966 0 003.483 1.77l.5.11v5.086a3.257 3.257 0 01-2.061-1.359 4.644 4.644 0 01-.784-2.211l-3.1.859c.07.626.24 1.237.5 1.811a5.88 5.88 0 001.16 1.7 6.81 6.81 0 001.812 1.342 7.088 7.088 0 002.513.731v2.096h2.514zm0-9.497c.587.135 1.12.443 1.532.882.317.37.488.843.482 1.33a2.357 2.357 0 01-.482 1.45c-.386.47-.932.78-1.532.872v-4.534zm-4.064-4.603a2.055 2.055 0 01-.487-1.341 2.363 2.363 0 01.51-1.463c.384-.468.917-.79 1.51-.912v4.534a2.595 2.595 0 01-1.544-.824l.011.006z" stroke="#FFF" stroke-width=".5"/><path d="M30.339 31.053c-7.101 6.733-18.288 6.535-25.146-.446-6.858-6.98-6.858-18.169 0-25.15 6.858-6.98 18.045-7.178 25.146-.445" stroke="#FFF" stroke-width=".5"/><circle stroke="#FFF" stroke-width=".5" cx="45.995" cy="18.015" r="17.937"/><path stroke="#FFF" stroke-width=".5" d="M39.488 17.092l5.288 5.288 7.72-7.726"/></g></svg>