<svg width="66" height="44" xmlns="http://www.w3.org/2000/svg"><g transform="translate(1 1)" fill="none" fill-rule="evenodd"><ellipse stroke="#FFF" stroke-width=".5" cx="32" cy="31.983" rx="10.674" ry="10.692"/><ellipse stroke="#FFF" stroke-width=".5" cx="32" cy="27.694" rx="3.289" ry="3.295"/><path d="M25.811 38.636a6.189 6.189 0 1112.378 0" stroke="#FFF" stroke-width=".5"/><ellipse stroke="#FFF" stroke-width=".5" cx="10.715" cy="10.732" rx="10.674" ry="10.692"/><ellipse fill="#E4E8F8" fill-rule="nonzero" cx="10.715" cy="6.438" rx="3.289" ry="3.295"/><path d="M10.715 19.809a9.036 9.036 0 006.189-2.458 6.189 6.189 0 00-12.378 0 9.036 9.036 0 006.189 2.458z" fill="#E4E8F8" fill-rule="nonzero"/><ellipse stroke="#FFF" stroke-width=".5" cx="53.285" cy="10.732" rx="10.674" ry="10.692"/><ellipse fill="#E4E8F8" fill-rule="nonzero" cx="53.285" cy="6.438" rx="3.289" ry="3.295"/><path d="M53.285 19.809a9.036 9.036 0 006.189-2.458 6.189 6.189 0 10-12.378 0 9.036 9.036 0 006.189 2.458z" fill="#E4E8F8" fill-rule="nonzero"/><path d="M16.787 31.983h-3.353a2.72 2.72 0 01-2.719-2.714v-3.951" stroke="#FFF" stroke-width=".5" stroke-dasharray="1"/><path d="M45.411 31.983h5.155a2.72 2.72 0 002.719-2.714v-5.114" stroke="#FFF" stroke-width=".5"/><path stroke="#FFF" stroke-width=".5" d="M47.7 34.272l-2.289-2.29 2.29-2.283"/></g></svg>