<svg width="66" height="66" xmlns="http://www.w3.org/2000/svg"><g transform="translate(1 1)" fill="none" fill-rule="evenodd"><path d="M63.898 30.38c-.903 16.953-14.913 30.236-31.89 30.236-16.976 0-30.986-13.283-31.89-30.236 0 .543-.044 1.086-.044 1.637 0 17.638 14.297 31.935 31.934 31.935 17.638 0 31.935-14.297 31.935-31.935 0-.56-.018-1.103-.045-1.637z" fill="#E4E8F8" fill-rule="nonzero"/><path d="M49.378 18.33c-5.428-2.913-4.921-8.92-4.921-8.92h-.417l-3.709 3.7v1.538l2.316 2.307-1.98 1.972-.788-.778.805-.787-1.32-1.312h-1.81l-1.737 1.81 3.067 3.066h-4.415v3.619l1.746.118h3.275v-1.357h1.592l2.443 2.162v1.927h3.935l4.162 4.206h4.722l1.456-1.456h6.053a32.016 32.016 0 00-3.447-12.666 10.476 10.476 0 01-11.028.85zM20.076 32.551h-8.423v-4.37h5.6l1.936-1.935h3.049l2.714-2.714v-4.36l-3.483-3.448H17.85l-1.402 2.1h-3.99V15l2.715-2.606v-1.81H8.36A31.826 31.826 0 00.463 27.034L8.27 33.04h2.207l2.307 2.307v3.872l2.886 2.922h1.466v10.286l2.922 2.985h1.13V53.44l5.184-5.283v-1.918l2.714-2.76v-4.957h-3.012l-5.998-5.97zM32.85 5.529l-7.545.009-3.619 3.664v3.962l4.605 4.66h2.026v-3.258l4.533-4.469zM43.127 28.182h-8.522l-2.56 2.56v5.455l3.645 3.637h6.55v6.278l5.057 4.894h1.258V44.44l2.261-2.29v-4.251h1.294l2.108-2.27h-3.664z" fill="#E4E8F8" fill-rule="nonzero"/><path d="M62.043 21.107A31.944 31.944 0 1132.117.073c3.797.013 7.561.7 11.118 2.027" stroke="#FFF" stroke-width=".5"/><circle stroke="#FFF" stroke-width=".5" cx="54.182" cy="9.844" r="9.77"/><path stroke="#FFF" stroke-width=".5" d="M50.636 9.337l2.876 2.886 4.207-4.215"/></g></svg>